<svg width="346" height="346" viewBox="0 0 346 346" fill="none" xmlns="http://www.w3.org/2000/svg">
<style>
    path {
      fill: black;
    }
    @media (prefers-color-scheme: light) {
      path {
        fill: black;
      }
    }
  </style>
<path fill-rule="evenodd" clip-rule="evenodd" d="M173 313C250.32 313 313 250.32 313 173C313 95.6801 250.32 33 173 33C95.6801 33 33 95.6801 33 173C33 250.32 95.6801 313 173 313ZM173 346C268.545 346 346 268.545 346 173C346 77.4547 268.545 0 173 0C77.4547 0 0 77.4547 0 173C0 268.545 77.4547 346 173 346Z" fill="black"/>
<path d="M123.47 230L89.7814 115.77H124.363L139.98 186.048H140.873L159.391 115.77H186.609L205.127 186.271H206.02L221.637 115.77H256.219L222.53 230H192.856L173.446 166.192H172.554L153.144 230H123.47Z" fill="black"/>
</svg>
